<?xml version="1.0" standalone="no"?>
<!DOCTYPE svg PUBLIC "-//W3C//DTD SVG 20010904//EN"
 "http://www.w3.org/TR/2001/REC-SVG-20010904/DTD/svg10.dtd">
<svg version="1.0" xmlns="http://www.w3.org/2000/svg"
 width="1201.000000pt" height="1201.000000pt" viewBox="0 0 1201.000000 1201.000000"
 preserveAspectRatio="xMidYMid meet">
<metadata>
Created by potrace 1.14, written by Peter Selinger 2001-2017
</metadata>
<g transform="translate(0.000000,1201.000000) scale(0.100000,-0.100000)"
fill="#000000" stroke="none">
<path d="M5779 11276 c-2 -2 -57 -7 -121 -10 -64 -4 -127 -9 -140 -11 -13 -2
-52 -6 -88 -9 -36 -4 -76 -8 -90 -10 -14 -3 -56 -9 -95 -15 -38 -6 -83 -13
-100 -15 -16 -2 -55 -9 -85 -16 -30 -6 -68 -13 -85 -16 -138 -24 -484 -120
-685 -189 -833 -289 -1644 -838 -2212 -1495 -26 -30 -64 -75 -85 -99 -99 -114
-312 -404 -388 -528 -218 -354 -368 -654 -493 -988 -73 -193 -167 -503 -188
-615 -3 -14 -9 -38 -14 -55 -11 -37 -58 -276 -65 -330 -2 -22 -7 -49 -9 -60
-2 -12 -7 -48 -11 -80 -4 -33 -9 -67 -10 -75 -2 -8 -6 -46 -10 -85 -4 -38 -8
-86 -10 -105 -22 -206 -22 -672 0 -890 2 -19 6 -57 8 -85 12 -119 20 -180 47
-340 16 -93 32 -183 35 -200 l6 -30 -241 -85 c-133 -46 -243 -87 -245 -90 -2
-4 19 -17 48 -30 29 -13 126 -59 217 -103 91 -43 197 -94 235 -112 39 -18 133
-63 210 -100 153 -74 315 -151 470 -225 55 -26 150 -71 210 -100 61 -29 137
-65 170 -81 l60 -28 58 122 c88 182 154 320 207 432 63 133 133 280 215 450
37 77 84 176 105 220 21 44 72 152 114 239 42 87 75 160 73 162 -2 2 -104 -32
-228 -76 -123 -44 -230 -80 -236 -80 -7 0 -13 8 -14 18 0 9 -2 26 -4 37 -2 11
-7 47 -11 80 -3 33 -8 68 -9 77 -21 107 -21 608 -1 738 2 14 7 52 11 85 10 96
22 172 50 316 22 115 113 434 147 517 6 15 12 32 13 37 10 39 139 332 176 398
5 10 24 44 40 75 39 72 161 275 169 282 3 3 16 22 28 42 21 34 161 221 207
277 69 82 124 141 239 256 146 145 176 172 291 266 510 413 1148 697 1780 793
102 15 179 25 260 33 97 9 523 9 620 0 208 -19 384 -47 575 -93 58 -14 112
-27 120 -29 8 -2 51 -15 95 -28 419 -129 823 -333 1153 -582 242 -183 476
-404 638 -604 l48 -60 41 32 c45 36 232 185 255 204 8 7 56 44 105 84 50 39
99 78 110 87 11 9 142 114 290 232 148 118 277 220 285 227 8 7 32 25 52 41
l38 29 -62 74 c-805 969 -1915 1609 -3163 1824 -93 16 -128 21 -210 31 -33 3
-69 8 -79 10 -11 2 -58 6 -105 10 -47 3 -97 8 -111 11 -28 5 -616 14 -621 9z"/>
<path d="M9971 7967 c-32 -67 -82 -171 -111 -232 -29 -60 -80 -166 -112 -235
-33 -69 -79 -165 -103 -215 -41 -88 -105 -221 -227 -475 -34 -69 -78 -163
-100 -210 -22 -47 -45 -97 -53 -112 -7 -16 -10 -28 -7 -28 4 0 110 37 235 81
125 45 230 79 233 77 6 -7 10 -30 19 -103 4 -33 9 -71 11 -85 23 -142 23 -618
0 -795 -1 -11 -6 -49 -11 -85 -4 -36 -9 -74 -11 -85 -2 -11 -9 -47 -14 -80
-16 -86 -39 -200 -45 -216 -2 -8 -6 -25 -9 -39 -8 -49 -56 -209 -102 -341
-288 -830 -857 -1525 -1624 -1984 -110 -65 -377 -201 -465 -235 -33 -12 -73
-29 -90 -36 -122 -54 -498 -163 -650 -189 -86 -15 -155 -25 -195 -30 -25 -3
-55 -7 -67 -9 -103 -20 -613 -29 -773 -14 -200 19 -490 71 -640 114 -98 28
-315 97 -330 105 -8 4 -53 22 -100 40 -84 31 -387 176 -466 223 -386 227 -701
487 -980 811 -42 50 -81 91 -85 93 -4 2 -210 -157 -456 -354 -246 -197 -479
-382 -518 -413 -38 -31 -75 -61 -81 -66 -6 -6 -34 -28 -62 -50 -29 -21 -52
-42 -52 -46 0 -26 403 -461 546 -589 202 -181 357 -305 538 -432 411 -288 884
-525 1373 -687 98 -32 368 -108 417 -117 16 -3 32 -7 36 -9 4 -2 21 -7 38 -10
18 -3 64 -12 102 -20 38 -8 84 -17 102 -20 18 -3 44 -7 58 -10 14 -3 41 -7 60
-10 19 -3 46 -7 60 -10 25 -4 50 -8 160 -21 30 -3 66 -8 80 -9 164 -20 757
-28 930 -12 47 4 108 10 135 12 28 3 84 10 125 15 41 6 91 13 110 16 45 6 147
22 180 29 361 71 670 160 960 274 58 23 124 51 147 62 24 10 45 19 47 19 6 0
143 63 234 109 43 21 140 73 217 116 584 326 1080 742 1524 1280 51 63 186
243 244 328 59 85 217 334 217 341 0 1 26 50 58 107 154 276 305 630 406 951
20 64 39 125 41 135 2 10 16 61 30 113 58 213 120 549 141 760 23 233 28 351
28 580 0 193 -9 412 -19 472 -2 13 -6 50 -9 83 -11 124 -50 372 -76 490 -5 22
-6 43 -2 46 4 3 81 32 172 64 251 87 310 109 310 115 0 4 -24 17 -52 30 -29
13 -132 62 -228 108 -96 46 -202 97 -235 112 -64 30 -214 101 -415 197 -202
97 -339 163 -435 208 -49 23 -127 61 -173 83 l-83 41 -58 -122z"/>
<path d="M4197 7844 c-1 -1 -58 -4 -127 -7 -502 -23 -801 -207 -1006 -622 -55
-111 -71 -186 -68 -323 7 -327 140 -586 385 -747 207 -136 552 -258 904 -319
94 -17 127 -23 173 -31 15 -3 43 -8 62 -11 19 -3 76 -15 125 -26 50 -10 100
-21 113 -24 12 -2 75 -20 139 -40 298 -90 388 -156 455 -332 33 -86 31 -225
-4 -310 -50 -121 -73 -142 -203 -179 -54 -15 -148 -17 -995 -19 -514 -1 -945
-3 -957 -3 -48 -2 -79 -50 -158 -240 -41 -101 -83 -206 -92 -233 -15 -48 -15
-50 6 -71 21 -22 23 -22 544 -25 1333 -6 1720 -4 1822 13 146 23 273 62 385
118 240 121 396 302 460 534 25 95 31 142 30 265 0 106 -3 138 -20 233 -14 77
-17 86 -41 150 -39 104 -103 205 -188 298 -103 112 -350 255 -571 332 -149 52
-441 125 -560 140 -199 26 -575 99 -675 132 -166 53 -276 138 -335 258 -81
166 -6 383 165 473 l50 27 800 2 c440 1 818 4 841 8 54 8 84 40 132 145 51
109 132 343 132 380 0 18 -7 33 -18 39 -12 6 -331 11 -861 13 -464 2 -843 2
-844 2z"/>
<path d="M6201 7819 c-57 -6 -67 -10 -92 -40 -15 -19 -40 -68 -55 -109 -15
-41 -39 -102 -54 -135 -15 -33 -45 -110 -66 -172 -37 -108 -38 -113 -21 -130
17 -17 66 -18 895 -19 658 -1 888 -5 922 -14 160 -44 279 -174 320 -350 26
-108 8 -287 -36 -372 -37 -71 -104 -107 -229 -123 -27 -4 -310 -8 -629 -10
-539 -3 -843 -10 -926 -20 -39 -5 -60 -27 -55 -57 6 -29 20 -43 94 -92 127
-85 230 -195 367 -395 37 -53 49 -54 574 -56 327 -1 498 -6 525 -13 45 -13
147 -72 183 -105 43 -40 102 -138 122 -205 46 -149 23 -357 -50 -449 -30 -38
-69 -59 -136 -74 -127 -27 -252 -32 -899 -34 -324 -2 -598 -4 -608 -6 -19 -3
-107 -76 -105 -87 1 -4 -4 -18 -9 -32 -6 -14 -20 -48 -31 -76 -25 -62 -41 -88
-114 -184 -66 -88 -119 -185 -112 -204 3 -8 15 -16 27 -18 31 -5 1802 -1 1857
5 219 22 322 56 459 152 43 30 196 181 248 245 15 19 36 44 47 55 40 43 115
168 139 232 53 140 62 199 61 383 0 115 -5 163 -22 230 -19 74 -97 253 -124
284 -43 51 -89 124 -103 165 -26 79 -14 116 81 248 69 96 95 147 128 249 41
127 50 260 32 436 -19 180 -59 270 -202 464 -115 156 -185 218 -351 311 -107
61 -243 105 -371 119 -69 8 -1606 11 -1681 3z"/>
</g>
</svg>
